<?xml version="1.0" encoding="UTF-8"?>
<svg id="Capa_1" xmlns="http://www.w3.org/2000/svg" version="1.1" viewBox="0 0 800 800">
  <!-- Generator: Adobe Illustrator 29.6.1, SVG Export Plug-In . SVG Version: 2.1.1 Build 9)  -->
  <defs>
    <style>
      .st0 {
        fill: #afafaf;
      }
    </style>
  </defs>
  <path class="st0" d="M663.69,617.77c34.32-41.41,58.61-90.86,70.22-142.99l58.21,12.97c-13.66,61.31-42.19,119.43-82.52,168.08l-45.92-38.06ZM644.62,82.68c-50.11-38.47-109.27-64.79-171.08-76.12l-10.75,58.66c52.56,9.64,102.88,32.03,145.52,64.77l36.32-47.31ZM17.8,284.2l57.06,17.35c15.54-51.1,43.48-98.6,80.82-137.35l-42.95-41.37c-43.83,45.5-76.66,101.3-94.92,161.37ZM134.44,699.21c47.11,42.11,104.11,72.82,164.84,88.79l15.18-57.68c-51.66-13.59-100.16-39.73-140.28-75.58l-39.74,44.47ZM51.5,595.92l52.02-29.18c-26.19-46.69-41.09-99.72-43.08-153.33l-59.6,2.22c2.34,63.02,19.86,125.36,50.66,180.28ZM246.25,96.89c48.26-24.72,100.36-37.25,154.87-37.25V0c-63.15,0-126.11,15.15-182.06,43.81l27.19,53.08ZM799.16,355.45c-7.04-62.54-29.22-123.38-64.13-175.95l-49.68,33c29.7,44.72,48.56,96.46,54.55,149.63l59.26-6.68ZM431.24,800c62.82-4.7,124.46-24.56,178.25-57.44l-31.11-50.88c-45.75,27.96-98.16,44.86-151.58,48.85l4.44,59.48Z"/>
</svg>