<svg viewBox="0 0 1920 1080" width="1920" height="1080" xmlns="http://www.w3.org/2000/svg"><rect width="1920" height="1080" fill="transparent"></rect><polygon points="0,192 192,192 96,0" fill="#CFCFC9"></polygon><path d="M 0 192 A 192 192 0 0 1 192 384 L 0 384 Z" fill="#DCDADF"></path><rect x="0" y="768" width="192" height="192" fill="#CFE1D2"></rect><path d="M 192 192 A 192 192 0 0 1 384 384 L 192 384 Z" fill="#CFCFC9"></path><circle cx="288" cy="864" r="96" fill="#CFCFC9"></circle><path d="M 768,0 A 192,192 1 0 0 576,192 L 768,192 Z" fill="#AEC5AF"></path><circle cx="672" cy="480" r="96" fill="#DCDADF"></circle><path d="M 768 576 A 192 192 0 0 1 960 768 L 768 768 Z" fill="#CFCFC9"></path><polygon points="768,1152 960,1152 864,960" fill="#AEC5AF"></polygon><circle cx="1056" cy="96" r="96" fill="#D3D3C6"></circle><rect x="960" y="192" width="192" height="192" fill="#CFCFC9"></rect><polygon points="1152,192 1344,192 1248,0" fill="#CFE1D2"></polygon><path d="M 1536,0 A 192,192 1 0 0 1344,192 L 1536,192 Z" fill="#AEC5AF"></path><polygon points="1344,384 1536,384 1440,576" fill="#DCDADF"></polygon><rect x="1344" y="576" width="192" height="192" fill="#D3D3C6"></rect><path d="M 1728,0 A 192,192 1 0 0 1536,192 L 1728,192 Z" fill="#D3D3C6"></path><path d="M 1728,384 A 192,192 1 0 0 1536,576 L 1728,576 Z" fill="#AEC5AF"></path><rect x="1536" y="576" width="192" height="192" fill="#DCDADF"></rect><path d="M 1920,192 A 192,192 1 0 0 1728,384 L 1920,384 Z" fill="#CFE1D2"></path><rect x="1728" y="768" width="192" height="192" fill="#CFE1D2"></rect></svg>