<?xml version="1.0" encoding="UTF-8"?>
<svg id="_レイヤー_2" data-name="レイヤー 2" xmlns="http://www.w3.org/2000/svg" viewBox="0 0 532.16 635.02">
  <defs>
    <style>
      .cls-1 {
        fill: #222;
        stroke-width: 0px;
      }
    </style>
  </defs>
  <g id="Logo">
    <g>
      <path class="cls-1" d="m19.93,622.32h10.82c1.08,2.38,2.96,3.32,6.42,3.32,4.76,0,6.85-2.24,6.85-7.65v-3.53c-2.02,3.1-5.12,4.76-8.87,4.76-7.5,0-15.51-5.05-15.51-18.11v-17.89h10.82v17.89c0,5.63,2.74,8.01,6.78,8.01s6.78-2.52,6.78-8.01v-17.89h10.82v34.41c0,12.41-7.93,17.38-17.67,17.38-8.44,0-15.44-3.9-17.24-12.7Zm42.69-20.63v-18.47h10.82v18.47c0,5.63,2.74,8.01,6.78,8.01s6.78-2.38,6.78-8.01v-18.47h10.82v18.47c0,11.98-7.07,18.11-17.6,18.11s-17.6-6.06-17.6-18.11Zm42.97-34.05h10.82v30.58l11.33-15h13.42l-14.5,17.46,15.08,18.18h-13.71l-11.61-15.36v15.36h-10.82v-51.22Zm39.75,34.05v-18.47h10.82v18.47c0,5.63,2.74,8.01,6.78,8.01s6.78-2.38,6.78-8.01v-18.47h10.82v18.47c0,11.98-7.07,18.11-17.6,18.11s-17.6-6.06-17.6-18.11Zm40.56-.65c0-10.82,7.94-18.76,19.19-18.76s18.97,7.94,18.97,18.76v3.03h-26.91c.87,4.18,4.04,6.06,7.94,6.06,3.1,0,5.41-.65,6.78-2.6h11.18c-2.31,7.36-9.09,12.26-17.96,12.26-11.25,0-19.19-7.94-19.19-18.76Zm27.05-3.82c-1.23-3.68-4.11-5.27-7.86-5.27s-6.64,1.66-7.72,5.27h15.58Zm24.23-25.54h20.85c11.11,0,16.01,6.2,16.01,14.57,0,7.79-4.18,12.98-11.9,14.43l13.63,18.18h-6.28l-12.77-17.89h-14.35v17.89h-5.19v-47.18Zm20.92,24.53c7.86,0,10.68-4.33,10.68-9.95s-2.81-9.81-10.68-9.81h-15.72v19.76h15.72Zm20.31,4.83c0-10.82,7.94-18.76,19.19-18.76s19.04,7.94,19.04,18.76v1.59h-33.25c.65,7.43,6.2,12.7,14.21,12.7,5.63,0,9.95-2.31,12.26-6.42h5.27c-2.74,6.56-9.23,10.89-17.53,10.89-11.25,0-19.19-7.94-19.19-18.76Zm33.18-2.74c-1.15-7.21-6.78-11.54-13.99-11.54s-12.98,4.54-14.07,11.54h28.06Zm8.91,2.74c0-10.82,7.94-18.76,19.19-18.76,9.23,0,16.23,5.34,18.32,13.27h-4.9c-1.95-5.34-6.92-8.8-13.42-8.8-8.51,0-14.28,6.06-14.28,14.28s5.77,14.28,14.28,14.28c6.49,0,11.47-3.46,13.42-8.8h4.9c-2.09,7.94-9.09,13.27-18.32,13.27-11.25,0-19.19-7.94-19.19-18.76Zm41.2,0c0-10.82,7.94-18.76,19.19-18.76s19.19,7.94,19.19,18.76-7.94,18.76-19.19,18.76-19.19-7.94-19.19-18.76Zm33.47,0c0-8.22-5.77-14.28-14.28-14.28s-14.28,6.06-14.28,14.28,5.77,14.28,14.28,14.28,14.28-6.06,14.28-14.28Zm10.38-3.53c0-10.24,6.13-15.22,15-15.22s14.93,4.98,14.93,15.29v.43h-4.76v-.5c0-7.43-4.11-10.75-10.17-10.75s-10.17,3.32-10.17,10.75v21.35h-4.83v-21.35Zm33.18,3.39c0-10.96,8.01-18.61,18.47-18.61,6.78,0,12.34,3.17,15,8.58v-23.23h4.83v33.18c0,11.47-8.01,18.97-19.04,18.97s-19.26-7.94-19.26-18.9Zm33.47.14c0-8.22-5.7-14.28-14.28-14.28s-14.28,6.06-14.28,14.28,5.77,14.28,14.28,14.28,14.28-6.06,14.28-14.28Zm11.18,7.79h4.91c.22,3.82,3.68,6.56,9.67,6.56s9.67-2.89,9.67-6.71c0-4.33-4.54-4.83-9.67-5.48-6.42-.79-13.71-1.8-13.71-9.67,0-6.71,5.27-11.25,13.63-11.25s13.49,4.62,13.63,10.68h-4.76c-.22-3.53-3.46-6.28-8.94-6.28s-8.73,2.74-8.73,6.42c0,4.4,4.62,4.9,9.67,5.55,5.55.72,13.78,1.59,13.78,9.67,0,6.78-5.7,11.47-14.57,11.47s-14.35-4.69-14.57-10.96Z"/>
      <path class="cls-1" d="m265.99,53.84c61.8,0,123.07,26.87,164.99,78.64,75.5,93.23,59.01,231.04-37.92,303.59-37.66,28.19-82.24,41.91-126.62,41.91-59.41,0-118.44-24.6-159.92-71.98-68.21-77.91-68.91-190.23-9.42-268.38,5.93-7.79,8.62-17.56,7.09-27.22l-7.5-47.34c-.45-2.84,1.8-5.2,4.42-5.19.53,0,1.08.1,1.62.3l44.73,17.17c4.01,1.54,8.21,2.29,12.41,2.29,5.39,0,10.79-1.23,15.78-3.59,28.71-13.55,59.59-20.2,90.35-20.2m0-53.84c-36.51,0-73.19,7.68-106.55,22.27l-37.42-14.37c-6.71-2.57-13.74-3.88-20.91-3.88-17.07,0-33.24,7.46-44.35,20.46-11.09,12.98-15.92,30.11-13.25,46.99l6.27,39.59C16.15,157.98-1.45,215.3.09,273.32c1.64,61.75,25.05,121.46,65.91,168.13,50.27,57.42,123.33,90.36,200.43,90.36,57.93,0,112.87-18.2,158.89-52.65,58.54-43.82,95.75-107.84,104.76-180.26,9.01-72.45-11.32-143.59-57.25-200.32C422.08,35.94,346.69,0,265.99,0h0Zm-30.6,142.62c-6.69,5.64-9.5,14.69-8.02,23.32l9.9,57.81c.53,3.11-2.54,5.6-5.47,4.43l-55.33-22.03c-8.08-3.22-17.28-1.83-24.04,3.64l-.89.72c-14.68,11.87-10.57,35.25,7.27,41.4l110.35,38.07c10.66,3.68,21.48-5.1,20.08-16.29l-14.48-115.71c-2.36-18.88-24.73-27.72-39.38-15.38Zm116.73,197.94c0-13.69-11.1-24.79-24.79-24.79s-24.79,11.1-24.79,24.79,11.1,24.79,24.79,24.79,24.79-11.1,24.79-24.79Z"/>
    </g>
  </g>
</svg>