<?xml version="1.0" encoding="UTF-8"?>
<svg id="_レイヤー_2" data-name="レイヤー 2" xmlns="http://www.w3.org/2000/svg" viewBox="0 0 1732.17 332.39">
  <defs>
    <style>
      .cls-1 {
        fill: #222;
        stroke-width: 0px;
      }
    </style>
  </defs>
  <g id="Logo">
    <path class="cls-1" d="m370.29,225.26h29.92c2.99,6.58,8.18,9.18,17.75,9.18,13.16,0,18.95-6.18,18.95-21.14v-9.77c-5.58,8.58-14.16,13.16-24.53,13.16-20.74,0-42.88-13.96-42.88-50.06v-49.46h29.91v49.46c0,15.56,7.58,22.14,18.75,22.14s18.75-6.98,18.75-22.14v-49.46h29.91v95.13c0,34.3-21.94,48.06-48.86,48.06-23.34,0-42.68-10.77-47.67-35.1Zm118.02-57.04v-51.06h29.91v51.06c0,15.56,7.58,22.14,18.75,22.14s18.75-6.58,18.75-22.14v-51.06h29.91v51.06c0,33.11-19.54,50.06-48.66,50.06s-48.66-16.75-48.66-50.06Zm118.81-94.13h29.91v84.56l31.31-41.48h37.1l-40.09,48.27,41.68,50.26h-37.89l-32.11-42.48v42.48h-29.91V74.08Zm109.9,94.13v-51.06h29.91v51.06c0,15.56,7.58,22.14,18.75,22.14s18.75-6.58,18.75-22.14v-51.06h29.91v51.06c0,33.11-19.54,50.06-48.66,50.06s-48.66-16.75-48.66-50.06Zm112.15-1.79c0-29.91,21.94-51.85,53.05-51.85s52.45,21.94,52.45,51.85v8.38h-74.39c2.39,11.57,11.17,16.75,21.94,16.75,8.57,0,14.96-1.79,18.75-7.18h30.91c-6.38,20.34-25.13,33.9-49.66,33.9-31.11,0-53.05-21.94-53.05-51.85Zm74.79-10.57c-3.39-10.17-11.37-14.56-21.74-14.56s-18.35,4.58-21.34,14.56h43.08Zm66.98-70.6h57.64c30.71,0,44.27,17.15,44.27,40.29,0,21.54-11.56,35.9-32.91,39.89l37.69,50.26h-17.35l-35.3-49.46h-39.69v49.46h-14.36V85.25Zm57.84,67.81c21.74,0,29.52-11.97,29.52-27.52s-7.78-27.12-29.52-27.12h-43.47v54.64h43.47Zm56.15,13.36c0-29.91,21.94-51.85,53.05-51.85s52.65,21.94,52.65,51.85v4.39h-91.94c1.8,20.54,17.15,35.1,39.29,35.1,15.55,0,27.52-6.38,33.9-17.75h14.56c-7.58,18.15-25.53,30.12-48.46,30.12-31.11,0-53.05-21.94-53.05-51.85Zm91.74-7.58c-3.19-19.94-18.75-31.91-38.69-31.91s-35.9,12.56-38.89,31.91h77.58Zm24.64,7.58c0-29.91,21.94-51.85,53.05-51.85,25.53,0,44.87,14.76,50.65,36.7h-13.56c-5.39-14.76-19.15-24.33-37.1-24.33-23.53,0-39.49,16.75-39.49,39.49s15.95,39.49,39.49,39.49c17.95,0,31.71-9.57,37.1-24.33h13.56c-5.78,21.94-25.13,36.7-50.65,36.7-31.11,0-53.05-21.94-53.05-51.85Zm113.9,0c0-29.91,21.94-51.85,53.05-51.85s53.05,21.94,53.05,51.85-21.94,51.85-53.05,51.85-53.05-21.94-53.05-51.85Zm92.54,0c0-22.73-15.95-39.49-39.49-39.49s-39.49,16.75-39.49,39.49,15.95,39.49,39.49,39.49,39.49-16.75,39.49-39.49Zm28.7-9.77c0-28.32,16.95-42.08,41.48-42.08s41.28,13.76,41.28,42.28v1.2h-13.16v-1.39c0-20.54-11.37-29.72-28.12-29.72s-28.12,9.18-28.12,29.72v59.03h-13.36v-59.03Zm91.73,9.37c0-30.32,22.14-51.46,51.06-51.46,18.75,0,34.1,8.78,41.48,23.73v-64.22h13.36v91.74c0,31.71-22.14,52.45-52.65,52.45s-53.25-21.94-53.25-52.25Zm92.54.4c0-22.73-15.75-39.49-39.49-39.49s-39.49,16.75-39.49,39.49,15.95,39.49,39.49,39.49,39.49-16.75,39.49-39.49Zm30.9,21.54h13.56c.6,10.57,10.17,18.15,26.72,18.15s26.72-7.98,26.72-18.55c0-11.97-12.56-13.36-26.72-15.16-17.75-2.2-37.89-4.99-37.89-26.72,0-18.55,14.56-31.11,37.69-31.11s37.3,12.76,37.69,29.52h-13.16c-.6-9.77-9.57-17.35-24.73-17.35s-24.13,7.58-24.13,17.75c0,12.17,12.76,13.56,26.72,15.35,15.36,1.99,38.09,4.39,38.09,26.73,0,18.75-15.76,31.71-40.29,31.71s-39.69-12.96-40.29-30.32ZM166.24,33.65c38.62,0,76.92,16.79,103.12,49.15,47.19,58.27,36.88,144.4-23.7,189.75-23.54,17.62-51.4,26.19-79.14,26.19-37.13,0-74.03-15.37-99.95-44.99-42.63-48.69-43.07-118.9-5.89-167.74,3.71-4.87,5.39-10.97,4.43-17.02l-4.69-29.59c-.28-1.77,1.12-3.25,2.76-3.25.33,0,.67.06,1.01.19l27.96,10.73c2.51.96,5.13,1.43,7.76,1.43,3.37,0,6.74-.77,9.87-2.24,17.94-8.47,37.24-12.62,56.47-12.62m0-33.65c-22.82,0-45.74,4.8-66.6,13.92l-23.39-8.98c-4.19-1.61-8.59-2.43-13.07-2.43-10.67,0-20.78,4.66-27.72,12.79-6.93,8.12-9.95,18.82-8.28,29.37l3.92,24.75C10.1,98.74-.91,134.56.06,170.83c1.03,38.59,15.65,75.91,41.19,105.08,31.42,35.89,77.08,56.47,125.27,56.47,36.21,0,70.55-11.38,99.3-32.9,36.59-27.39,59.84-67.4,65.47-112.66,5.63-45.28-7.07-89.74-35.78-125.2C263.8,22.46,216.69,0,166.24,0h0Zm-19.13,89.14c-4.18,3.53-5.94,9.18-5.01,14.58l6.19,36.13c.33,1.94-1.59,3.5-3.42,2.77l-34.58-13.77c-5.05-2.01-10.8-1.14-15.03,2.28l-.55.45c-9.17,7.42-6.61,22.03,4.54,25.88l68.97,23.8c6.66,2.3,13.43-3.19,12.55-10.18l-9.05-72.32c-1.48-11.8-15.45-17.33-24.61-9.61Zm72.96,123.72c0-8.56-6.94-15.49-15.49-15.49s-15.49,6.94-15.49,15.49,6.94,15.49,15.49,15.49,15.49-6.94,15.49-15.49Z"/>
  </g>
</svg>