<?xml version="1.0" encoding="UTF-8"?>
<svg id="_レイヤー_2" data-name="レイヤー 2" xmlns="http://www.w3.org/2000/svg" viewBox="0 0 560.45 560.08">
  <defs>
    <style>
      .cls-1 {
        fill: #222;
        stroke-width: 0px;
      }
    </style>
  </defs>
  <g id="Logo">
    <path class="cls-1" d="m280.13,56.7c65.08,0,129.61,28.29,173.76,82.82,79.51,98.19,62.14,243.32-39.94,319.73-39.67,29.69-86.62,44.14-133.35,44.14-62.56,0-124.74-25.91-168.43-75.81-71.83-82.05-72.57-200.35-9.92-282.64,6.24-8.2,9.08-18.49,7.46-28.67l-7.9-49.86c-.47-2.99,1.89-5.47,4.66-5.47.56,0,1.13.1,1.7.32l47.11,18.08c4.23,1.62,8.65,2.41,13.07,2.41,5.68,0,11.36-1.3,16.62-3.78,30.23-14.27,62.75-21.27,95.15-21.27m0-56.7c-38.45,0-77.08,8.09-112.22,23.45l-39.41-15.13c-7.06-2.71-14.47-4.09-22.02-4.09-17.98,0-35.01,7.85-46.7,21.55-11.68,13.68-16.77,31.71-13.95,49.49l6.6,41.7C17.01,166.38-1.53,226.74.1,287.85c1.73,65.03,26.38,127.92,69.41,177.07,52.94,60.47,129.88,95.16,211.09,95.16,61.01,0,118.87-19.17,167.33-55.45,61.66-46.15,100.84-113.57,110.33-189.84,9.49-76.3-11.92-151.22-60.3-210.96C444.52,37.85,365.12,0,280.13,0h0Zm-32.23,150.2c-7.05,5.94-10,15.47-8.45,24.56l10.42,60.89c.56,3.27-2.68,5.9-5.76,4.67l-58.27-23.2c-8.51-3.39-18.19-1.92-25.32,3.84l-.93.75c-15.46,12.5-11.14,37.12,7.66,43.6l116.22,40.1c11.23,3.87,22.63-5.37,21.15-17.16l-15.25-121.86c-2.49-19.88-26.04-29.2-41.47-16.19Zm122.94,208.46c0-14.42-11.69-26.1-26.1-26.1s-26.1,11.69-26.1,26.1,11.69,26.1,26.1,26.1,26.1-11.69,26.1-26.1Z"/>
  </g>
</svg>